<?xml version="1.0" standalone="no"?>
<!DOCTYPE svg PUBLIC "-//W3C//DTD SVG 20010904//EN"
 "http://www.w3.org/TR/2001/REC-SVG-20010904/DTD/svg10.dtd">
<svg version="1.0" xmlns="http://www.w3.org/2000/svg"
 width="800.000000pt" height="800.000000pt" viewBox="0 0 800.000000 800.000000"
 preserveAspectRatio="xMidYMid meet">
<metadata>
Created by potrace 1.11, written by Peter Selinger 2001-2013
</metadata>
<g transform="translate(0.000000,800.000000) scale(0.100000,-0.100000)"
fill="#000000" stroke="none">
<path d="M3235 7319 c-1065 -39 -1930 -177 -2682 -425 l-51 -17 85 -126 c47
-69 94 -138 104 -152 l19 -27 86 30 c629 211 1361 337 2319 400 309 20 1528
17 1840 -5 916 -64 1618 -186 2202 -381 96 -32 135 -41 141 -32 5 6 53 75 106
153 l96 142 -32 9 c-18 5 -100 31 -183 57 -576 180 -1317 303 -2130 355 -464
29 -1396 39 -1920 19z"/>
<path d="M2900 6653 c-743 -31 -1423 -137 -1878 -294 -156 -53 -149 -47 -111
-99 100 -138 376 -340 616 -452 92 -42 187 -78 209 -78 7 0 15 19 19 43 44
278 381 430 1006 454 158 6 167 5 172 -13 3 -10 20 -95 37 -189 32 -175 50
-271 94 -505 13 -74 46 -247 71 -385 25 -137 53 -284 61 -325 9 -41 19 -97 24
-125 9 -58 84 -466 106 -575 15 -76 18 -91 53 -285 11 -60 54 -290 95 -510 41
-220 79 -425 85 -455 5 -30 50 -271 100 -535 49 -264 111 -592 136 -730 25
-137 64 -344 86 -460 88 -466 98 -522 105 -572 8 -63 19 -61 28 4 6 43 24 136
126 683 17 85 75 398 130 695 55 297 118 635 140 750 22 116 74 392 115 615
41 223 84 455 96 515 11 61 27 144 35 185 7 41 27 149 44 240 55 295 81 433
101 545 11 61 31 166 44 235 14 69 50 262 80 430 31 168 62 337 70 375 8 39
26 135 40 215 14 80 29 154 32 164 5 18 14 19 172 13 438 -17 730 -94 881
-234 65 -59 112 -144 125 -220 4 -24 12 -43 19 -43 23 0 123 38 212 79 238
112 514 315 613 451 23 32 28 46 19 51 -45 24 -282 99 -446 140 -534 134
-1247 209 -1985 209 l-298 0 -27 -32 c-15 -17 -52 -64 -82 -103 -165 -216
-266 -344 -270 -344 -3 0 -81 98 -173 217 -92 119 -176 227 -186 240 l-19 22
-329 -2 c-180 -1 -357 -3 -393 -5z"/>
</g>
</svg>
